<svg xmlns="http://www.w3.org/2000/svg" viewBox="0 0 64 64"><g id="bag_·_sale_·_shopping_·_shop_·_ecommerce" data-name="bag · sale · shopping · shop · ecommerce"><path d="M61,14H56a1,1,0,0,0,0,2h3.83A3,3,0,0,1,54,15a1,1,0,0,0-1-1H51V13A10.979,10.979,0,0,0,36.5,2.58,10.979,10.979,0,0,0,22,13v1H13a1,1,0,0,0-1,1V28.09A6.007,6.007,0,0,0,7,34H3a1,1,0,0,0-1,1V57a5,5,0,0,0,5,5H57a5,5,0,0,0,5-5V15A1,1,0,0,0,61,14ZM40,4a9.014,9.014,0,0,1,9,9v1H44V13a11,11,0,0,0-4.65-8.97C39.56,4.02,39.78,4,40,4Zm4,19a1,1,0,1,1-1-1A1,1,0,0,1,44,23ZM42,13v1H31V13a9.014,9.014,0,0,1,5.5-8.29A9.014,9.014,0,0,1,42,13ZM24,13a9.014,9.014,0,0,1,9-9c.22,0,.44.02.65.03A11,11,0,0,0,29,13v1H24Zm-1,9a1,1,0,1,1-1,1A1,1,0,0,1,23,22ZM13,30a3.87,3.87,0,0,1,.49.05A6.016,6.016,0,0,0,12,34H9A4,4,0,0,1,13,30ZM7,60a3.009,3.009,0,0,1-3-3V36H7v2a1,1,0,0,0,0,2H9a1,1,0,0,0,0-2V36h8v2a1,1,0,0,0,0,2h2a1,1,0,0,0,0-2V36h3V58a3.906,3.906,0,0,0,.56,2Zm7-26a3.976,3.976,0,0,1,1.5-3.1A3.976,3.976,0,0,1,17,34Zm3.51-3.95A3.87,3.87,0,0,1,18,30a4,4,0,0,1,4,4H19A6.016,6.016,0,0,0,17.51,30.05ZM28,58a2,2,0,0,1-4,0V38.44a3.851,3.851,0,0,0,4,0Zm1.44,2A3.906,3.906,0,0,0,30,58V35a1,1,0,0,0-1-1H26a1,1,0,0,0,0,2h1.72A1.992,1.992,0,0,1,24,35V34a5.992,5.992,0,0,0-8.5-5.45,6.225,6.225,0,0,0-1.5-.46V16h8v4.18a3,3,0,1,0,2,0V16H42v4.18a3,3,0,1,0,2,0V16h8V57a4.924,4.924,0,0,0,1.03,3ZM60,57a3,3,0,0,1-6,0V18.97a4.884,4.884,0,0,0,6,0Z" id="id_101" style="fill: rgb(255, 255, 255);"></path></g></svg>